:SAMPLES-PER-SECOND 30
:FULLY-SPECIFIED
:DEGREES
234
root  -6.42588 37.7958 6.50306 -8.51348 17.2881 -2.13889
RightUpLeg  2.27169 -19.8828 -2.2355
RightLeg  60.3999 1.52663 2.51497
RightFoot  16.1288 -3.00596 12.7842
RightToes  -5.82094e-011 -1.98785e-016 -5.10186e-018
Spine  9.5975 3.10086 4.43327
Spine1  5.74146 3.76974 -3.73557
HEad  4.73534 -11.3711 0.287657
LeftShoulder1  0.699818 1.18038 -23.8943
LeftArm  -22.9505 35.1765 -52.2433
LeftForeArm  81.2355 -59.475 -12.2384
LeftHand  0.428786 -0.856249 -7.9425
RightShoulder  4.19588 8.60647 28.6892
RightArm  8.74608 -10.2101 43.1476
RightForeArm  32.8469 54.0681 12.7944
RightHand  -1.72289 9.2682 -13.9411
LeftUpLeg  -17.9542 0.701228 -10.2982
LeftLeg  9.78817 -6.07771 -3.01427
LeftFoot  23.4947 3.4329 -12.0597
LeftToes  -8.4584e-011 5.90861e-011 8.40072e-012
235
root  -6.14656 37.6408 3.62469 -5.7327 16.1547 -1.84215
RightUpLeg  5.17286 -22.5235 -0.847028
RightLeg  51.7856 0.636847 0.531412
RightFoot  13.0044 -2.51854 11.6811
RightToes  -5.82094e-011 -1.98785e-016 -5.10186e-018
Spine  8.23571 2.39484 2.7497
Spine1  4.08741 2.06418 -0.682166
HEad  3.62081 -8.82554 -0.279161
LeftShoulder1  0.920501 0.337061 -22.7116
LeftArm  -23.6247 34.5859 -52.2424
LeftForeArm  82.1564 -63.2279 -14.6405
LeftHand  0.477884 -1.31282 -8.15588
RightShoulder  3.98357 8.09093 28.3909
RightArm  7.46433 -10.9403 42.6087
RightForeArm  29.0406 50.6722 11.4464
RightHand  -1.73851 9.10408 -14.21
LeftUpLeg  -24.2109 3.27805 -10.7137
LeftLeg  15.2983 -13.6778 -4.30856
LeftFoot  17.3875 3.9722 -15.6682
LeftToes  -8.4584e-011 5.90861e-011 8.40072e-012
236
root  -5.88632 37.3169 0.693344 -5.55284 13.4776 -1.66664
RightUpLeg  9.36951 -21.2437 0.482337
RightLeg  42.9853 -0.961915 -1.27547
RightFoot  -0.850571 -0.500125 7.23931
RightToes  -5.82094e-011 -1.98785e-016 -5.10186e-018
Spine  10.4807 1.48209 2.3999
Spine1  2.52526 0.808931 1.77016
HEad  -0.656592 -5.37027 -0.769025
LeftShoulder1  1.06223 -0.243848 -22.0175
LeftArm  -25.1844 32.7457 -51.309
LeftForeArm  84.6429 -67.6875 -18.3785
LeftHand  0.328123 0.0609173 -7.26449
RightShoulder  3.82214 7.75774 27.9673
RightArm  5.01935 -10.0986 42.2594
RightForeArm  25.7001 47.6583 10.4113
RightHand  -1.73034 9.2342 -14.0292
LeftUpLeg  -27.9824 -0.651841 -7.33807
LeftLeg  25.4667 -10.3688 -4.81939
LeftFoot  11.8369 1.58894 -7.89334
LeftToes  -8.4584e-011 5.90861e-011 8.40072e-012
237
root  -5.60884 36.5429 -2.44999 -6.10047 9.47169 -0.658913
RightUpLeg  11.1793 -16.3346 1.23885
RightLeg  36.8618 -2.59845 -2.39183
RightFoot  -25.109 0.78277 8.92124
RightToes  -5.82094e-011 -1.98785e-016 -5.10186e-018
Spine  13.8076 1.24165 1.4808
Spine1  2.53116 0.274976 3.7235
HEad  -6.9578 -2.05045 -1.94978
LeftShoulder1  1.36108 -1.40318 -21.3193
LeftArm  -26.9148 29.8046 -48.8239
LeftForeArm  90.129 -71.8306 -23.4698
LeftHand  0.265732 0.182603 -5.97517
RightShoulder  3.92458 7.9216 28.3887
RightArm  1.38079 -9.28757 40.4261
RightForeArm  23.7465 46.2366 10.0008
RightHand  -1.91413 8.50728 -16.2335
LeftUpLeg  -31.8717 -0.863897 -4.70067
LeftLeg  40.1993 -4.64245 -3.79359
LeftFoot  4.35797 0.302287 -2.66294
LeftToes  -8.4584e-011 5.90861e-011 8.40072e-012
238
root  -5.11307 35.8392 -5.6078 -5.93798 4.4146 -2.22925
RightUpLeg  4.63266 -10.409 4.79783
RightLeg  39.4283 -5.54505 -5.16497
RightFoot  -36.4877 0.813331 4.56911
RightToes  -5.82094e-011 -1.98785e-016 -5.10186e-018
Spine  16.4678 0.397261 4.9133
Spine1  2.63825 0.252419 3.87575
HEad  -12.96 0.759149 -3.73586
LeftShoulder1  1.26259 -0.989492 -21.853
LeftArm  -27.8506 25.439 -45.0954
LeftForeArm  96.8365 -75.1439 -29.4036
LeftHand  0.1769 1.6738 -5.94902
RightShoulder  3.93345 7.91764 28.4796
RightArm  -2.87531 -9.60455 38.8029
RightForeArm  25.1512 46.6532 10.0618
RightHand  -2.36914 7.74692 -21.0017
LeftUpLeg  -35.0748 0.6351 0.421746
LeftLeg  54.3587 -1.91143 -2.53424
LeftFoot  1.84469 0.247238 -2.21168
LeftToes  -8.4584e-011 5.90861e-011 8.40072e-012
239
root  -4.52345 35.7865 -8.60618 -5.2601 0.0715395 -5.2181
RightUpLeg  -3.40974 -6.4879 8.51605
RightLeg  42.8475 -6.19742 -6.35982
RightFoot  -35.2055 0.55533 3.75168
RightToes  -5.82094e-011 -1.98785e-016 -5.10186e-018
Spine  17.4009 -1.01741 9.01956
Spine1  5.20554 -0.101763 3.69414
HEad  -16.3362 3.65104 -6.23708
LeftShoulder1  1.0639 0.0200298 -24.2259
LeftArm  -30.1293 20.1667 -42.4424
LeftForeArm  102.571 -76.2832 -32.1419
LeftHand  0.140102 2.24899 -5.61803
RightShoulder  3.95805 7.85972 28.8868
RightArm  -5.27902 -11.2538 36.4805
RightForeArm  26.5935 47.0436 10.1066
RightHand  -2.8019 7.73873 -24.7757
LeftUpLeg  -35.0371 1.00512 6.57745
LeftLeg  64.0529 -1.23721 -1.99397
LeftFoot  -0.767142 0.116692 -1.24558
LeftToes  -8.4584e-011 5.90861e-011 8.40072e-012
240
root  -4.12244 36.2618 -11.3814 -6.17666 -0.349873 -5.12586
RightUpLeg  -8.10181 -8.29341 7.18672
RightLeg  43.5148 -3.80503 -4.20279
RightFoot  -28.9858 0.255298 2.86225
RightToes  -5.82094e-011 -1.98785e-016 -5.10186e-018
Spine  20.5757 -1.9967 4.0649
Spine1  5.97807 -3.04354 8.54537
HEad  -17.7586 7.28795 -7.19561
LeftShoulder1  1.15392 -0.363251 -23.576
LeftArm  -34.8111 20.6315 -45.1723
LeftForeArm  108.144 -78.1439 -38.4472
LeftHand  0.0201699 4.19269 -4.84075
RightShoulder  3.71486 7.23244 28.6397
RightArm  -5.96933 -14.9485 36.1051
RightForeArm  28.0276 47.439 10.1582
RightHand  -2.59711 8.1303 -22.2297
LeftUpLeg  -29.7753 -2.57919 8.02794
LeftLeg  67.8585 0.448141 1.91434
LeftFoot  -1.90494 0.0830612 -0.888793
LeftToes  -8.4584e-011 5.90861e-011 8.40072e-012
